<svg id="visual" viewBox="0 0 900 600" width="900" height="600" xmlns="http://www.w3.org/2000/svg" xmlns:xlink="http://www.w3.org/1999/xlink" version="1.1"><g stroke-width="1" stroke-linejoin="bevel"><path d="M396 285L396 196L310 192Z" fill="#0c2435" stroke="#0c2435"></path><path d="M310 192L297 285L396 285Z" fill="#1d4e6b" stroke="#1d4e6b"></path><path d="M484 183L401 117L396 196Z" fill="#1d4e6b" stroke="#1d4e6b"></path><path d="M396 196L401 117L310 192Z" fill="#277297" stroke="#277297"></path><path d="M396 285L484 183L396 196Z" fill="#297ea6" stroke="#297ea6"></path><path d="M401 117L285 111L310 192Z" fill="#277297" stroke="#277297"></path><path d="M188 209L207 299L297 285Z" fill="#205a7a" stroke="#205a7a"></path><path d="M188 209L297 285L310 192Z" fill="#112e42" stroke="#112e42"></path><path d="M297 285L385 402L396 285Z" fill="#081a28" stroke="#081a28"></path><path d="M491 406L506 290L396 285Z" fill="#1d4e6b" stroke="#1d4e6b"></path><path d="M396 285L506 290L484 183Z" fill="#0c2435" stroke="#0c2435"></path><path d="M207 299L292 394L297 285Z" fill="#112e42" stroke="#112e42"></path><path d="M292 394L385 402L297 285Z" fill="#19435d" stroke="#19435d"></path><path d="M285 111L188 209L310 192Z" fill="#277297" stroke="#277297"></path><path d="M212 0L201 93L285 111Z" fill="#15384f" stroke="#15384f"></path><path d="M285 111L201 93L188 209Z" fill="#0c2435" stroke="#0c2435"></path><path d="M591 117L497 89L484 183Z" fill="#112e42" stroke="#112e42"></path><path d="M484 183L497 89L401 117Z" fill="#19435d" stroke="#19435d"></path><path d="M401 117L314 0L285 111Z" fill="#277297" stroke="#277297"></path><path d="M385 402L491 406L396 285Z" fill="#205a7a" stroke="#205a7a"></path><path d="M207 299L203 400L292 394Z" fill="#205a7a" stroke="#205a7a"></path><path d="M292 394L387 489L385 402Z" fill="#112e42" stroke="#112e42"></path><path d="M385 402L387 489L491 406Z" fill="#297ea6" stroke="#297ea6"></path><path d="M106 406L203 400L207 299Z" fill="#297ea6" stroke="#297ea6"></path><path d="M583 314L584 213L506 290Z" fill="#205a7a" stroke="#205a7a"></path><path d="M506 290L584 213L484 183Z" fill="#205a7a" stroke="#205a7a"></path><path d="M399 0L314 0L401 117Z" fill="#1d4e6b" stroke="#1d4e6b"></path><path d="M491 406L583 314L506 290Z" fill="#15384f" stroke="#15384f"></path><path d="M497 89L399 0L401 117Z" fill="#081a28" stroke="#081a28"></path><path d="M291 504L387 489L292 394Z" fill="#277297" stroke="#277297"></path><path d="M111 112L88 185L188 209Z" fill="#15384f" stroke="#15384f"></path><path d="M188 209L87 302L207 299Z" fill="#00101c" stroke="#00101c"></path><path d="M111 112L188 209L201 93Z" fill="#246688" stroke="#246688"></path><path d="M584 213L591 117L484 183Z" fill="#297ea6" stroke="#297ea6"></path><path d="M497 89L500 0L399 0Z" fill="#19435d" stroke="#19435d"></path><path d="M715 208L591 117L584 213Z" fill="#205a7a" stroke="#205a7a"></path><path d="M203 400L291 504L292 394Z" fill="#1d4e6b" stroke="#1d4e6b"></path><path d="M88 185L87 302L188 209Z" fill="#1d4e6b" stroke="#1d4e6b"></path><path d="M203 400L187 513L291 504Z" fill="#19435d" stroke="#19435d"></path><path d="M109 0L111 112L201 93Z" fill="#277297" stroke="#277297"></path><path d="M314 0L212 0L285 111Z" fill="#205a7a" stroke="#205a7a"></path><path d="M590 0L500 0L497 89Z" fill="#297ea6" stroke="#297ea6"></path><path d="M87 302L106 406L207 299Z" fill="#0c2435" stroke="#0c2435"></path><path d="M491 406L596 413L583 314Z" fill="#246688" stroke="#246688"></path><path d="M387 489L492 503L491 406Z" fill="#081a28" stroke="#081a28"></path><path d="M410 600L492 503L387 489Z" fill="#1d4e6b" stroke="#1d4e6b"></path><path d="M587 503L596 413L491 406Z" fill="#081a28" stroke="#081a28"></path><path d="M717 313L715 208L584 213Z" fill="#277297" stroke="#277297"></path><path d="M106 406L187 513L203 400Z" fill="#246688" stroke="#246688"></path><path d="M291 504L410 600L387 489Z" fill="#15384f" stroke="#15384f"></path><path d="M698 83L590 0L591 117Z" fill="#19435d" stroke="#19435d"></path><path d="M591 117L590 0L497 89Z" fill="#246688" stroke="#246688"></path><path d="M212 0L109 0L201 93Z" fill="#081a28" stroke="#081a28"></path><path d="M0 195L0 285L88 185Z" fill="#205a7a" stroke="#205a7a"></path><path d="M492 503L587 503L491 406Z" fill="#00101c" stroke="#00101c"></path><path d="M499 600L587 503L492 503Z" fill="#112e42" stroke="#112e42"></path><path d="M87 302L0 402L106 406Z" fill="#205a7a" stroke="#205a7a"></path><path d="M106 406L92 486L187 513Z" fill="#19435d" stroke="#19435d"></path><path d="M88 185L0 285L87 302Z" fill="#297ea6" stroke="#297ea6"></path><path d="M0 195L88 185L0 88Z" fill="#0c2435" stroke="#0c2435"></path><path d="M0 88L88 185L111 112Z" fill="#277297" stroke="#277297"></path><path d="M0 402L92 486L106 406Z" fill="#00101c" stroke="#00101c"></path><path d="M286 600L291 504L187 513Z" fill="#277297" stroke="#277297"></path><path d="M286 600L410 600L291 504Z" fill="#112e42" stroke="#112e42"></path><path d="M190 600L286 600L187 513Z" fill="#081a28" stroke="#081a28"></path><path d="M717 313L583 314L696 407Z" fill="#0c2435" stroke="#0c2435"></path><path d="M717 313L584 213L583 314Z" fill="#297ea6" stroke="#297ea6"></path><path d="M696 407L583 314L596 413Z" fill="#00101c" stroke="#00101c"></path><path d="M715 208L698 83L591 117Z" fill="#112e42" stroke="#112e42"></path><path d="M109 0L0 88L111 112Z" fill="#15384f" stroke="#15384f"></path><path d="M686 485L696 407L596 413Z" fill="#081a28" stroke="#081a28"></path><path d="M0 285L0 402L87 302Z" fill="#15384f" stroke="#15384f"></path><path d="M410 600L499 600L492 503Z" fill="#0c2435" stroke="#0c2435"></path><path d="M587 503L686 485L596 413Z" fill="#15384f" stroke="#15384f"></path><path d="M99 600L187 513L92 486Z" fill="#081a28" stroke="#081a28"></path><path d="M99 600L190 600L187 513Z" fill="#00101c" stroke="#00101c"></path><path d="M610 600L686 485L587 503Z" fill="#15384f" stroke="#15384f"></path><path d="M814 412L804 290L717 313Z" fill="#0c2435" stroke="#0c2435"></path><path d="M109 0L0 0L0 88Z" fill="#081a28" stroke="#081a28"></path><path d="M782 94L710 0L698 83Z" fill="#00101c" stroke="#00101c"></path><path d="M698 83L710 0L590 0Z" fill="#00101c" stroke="#00101c"></path><path d="M0 515L99 600L92 486Z" fill="#297ea6" stroke="#297ea6"></path><path d="M499 600L610 600L587 503Z" fill="#19435d" stroke="#19435d"></path><path d="M0 402L0 515L92 486Z" fill="#081a28" stroke="#081a28"></path><path d="M715 208L782 94L698 83Z" fill="#277297" stroke="#277297"></path><path d="M811 213L782 94L715 208Z" fill="#297ea6" stroke="#297ea6"></path><path d="M804 290L715 208L717 313Z" fill="#1d4e6b" stroke="#1d4e6b"></path><path d="M814 412L717 313L696 407Z" fill="#297ea6" stroke="#297ea6"></path><path d="M804 290L811 213L715 208Z" fill="#112e42" stroke="#112e42"></path><path d="M791 515L696 407L686 485Z" fill="#19435d" stroke="#19435d"></path><path d="M791 515L814 412L696 407Z" fill="#205a7a" stroke="#205a7a"></path><path d="M900 308L900 199L811 213Z" fill="#081a28" stroke="#081a28"></path><path d="M0 515L0 600L99 600Z" fill="#277297" stroke="#277297"></path><path d="M610 600L713 600L686 485Z" fill="#297ea6" stroke="#297ea6"></path><path d="M713 600L791 515L686 485Z" fill="#277297" stroke="#277297"></path><path d="M900 90L816 0L782 94Z" fill="#297ea6" stroke="#297ea6"></path><path d="M782 94L816 0L710 0Z" fill="#00101c" stroke="#00101c"></path><path d="M900 90L782 94L811 213Z" fill="#246688" stroke="#246688"></path><path d="M900 308L804 290L814 412Z" fill="#205a7a" stroke="#205a7a"></path><path d="M900 308L811 213L804 290Z" fill="#205a7a" stroke="#205a7a"></path><path d="M900 416L900 308L814 412Z" fill="#297ea6" stroke="#297ea6"></path><path d="M900 199L900 90L811 213Z" fill="#205a7a" stroke="#205a7a"></path><path d="M900 487L814 412L791 515Z" fill="#112e42" stroke="#112e42"></path><path d="M900 487L900 416L814 412Z" fill="#19435d" stroke="#19435d"></path><path d="M713 600L808 600L791 515Z" fill="#1d4e6b" stroke="#1d4e6b"></path><path d="M900 90L900 0L816 0Z" fill="#246688" stroke="#246688"></path><path d="M900 600L900 487L791 515Z" fill="#19435d" stroke="#19435d"></path><path d="M808 600L900 600L791 515Z" fill="#205a7a" stroke="#205a7a"></path></g></svg>